<?xml version="1.0" encoding="UTF-8"?>
<!DOCTYPE svg PUBLIC "-//W3C//DTD SVG 1.1//EN" "http://www.w3.org/Graphics/SVG/1.1/DTD/svg11.dtd">
<svg xmlns="http://www.w3.org/2000/svg" version="1.1" width="2000px" height="1181px" style="shape-rendering:geometricPrecision; text-rendering:geometricPrecision; image-rendering:optimizeQuality; fill-rule:evenodd; clip-rule:evenodd" xmlns:xlink="http://www.w3.org/1999/xlink">
<g><path style="opacity:0.995" fill="#9c7945" d="M 1.5,-0.5 C 40.5,-0.5 79.5,-0.5 118.5,-0.5C 118.5,386.833 118.5,774.167 118.5,1161.5C 79.5,1161.5 40.5,1161.5 1.5,1161.5C 1.5,1155.5 1.5,1149.5 1.5,1143.5C 11.4203,1144.94 20.4203,1142.77 28.5,1137C 48.6944,1117.11 60.1944,1092.94 63,1064.5C 64.1604,902.353 64.6604,740.186 64.5,578C 64.3333,418.833 64.1667,259.667 64,100.5C 61.1857,78.39 54.1857,57.7233 43,38.5C 33.169,23.6673 19.3356,16.3339 1.5,16.5C 1.5,10.8333 1.5,5.16667 1.5,-0.5 Z"/></g>
<g><path style="opacity:1" fill="#9d7b46" d="M 118.5,-0.5 C 125.167,-0.5 131.833,-0.5 138.5,-0.5C 138.5,386.833 138.5,774.167 138.5,1161.5C 131.833,1161.5 125.167,1161.5 118.5,1161.5C 118.5,774.167 118.5,386.833 118.5,-0.5 Z"/></g>
<g><path style="opacity:0.993" fill="#9f7e49" d="M 138.5,-0.5 C 146.167,-0.5 153.833,-0.5 161.5,-0.5C 161.5,386.833 161.5,774.167 161.5,1161.5C 165.833,1161.5 170.167,1161.5 174.5,1161.5C 179.5,1161.5 184.5,1161.5 189.5,1161.5C 200.5,1161.5 211.5,1161.5 222.5,1161.5C 231.682,1161.17 240.682,1161.51 249.5,1162.5C 166.665,1162.83 83.9983,1162.5 1.5,1161.5C 40.5,1161.5 79.5,1161.5 118.5,1161.5C 125.167,1161.5 131.833,1161.5 138.5,1161.5C 138.5,774.167 138.5,386.833 138.5,-0.5 Z"/></g>
<g><path style="opacity:1" fill="#a1804b" d="M 161.5,-0.5 C 165.833,-0.5 170.167,-0.5 174.5,-0.5C 174.5,386.833 174.5,774.167 174.5,1161.5C 170.167,1161.5 165.833,1161.5 161.5,1161.5C 161.5,774.167 161.5,386.833 161.5,-0.5 Z"/></g>
<g><path style="opacity:0.941" fill="#a3824c" d="M 174.5,-0.5 C 179.5,-0.5 184.5,-0.5 189.5,-0.5C 189.5,19.8333 189.5,40.1667 189.5,60.5C 187.901,60.2322 186.568,60.5655 185.5,61.5C 185.5,219.5 185.5,377.5 185.5,535.5C 185.899,536.521 187.233,536.854 189.5,536.5C 189.5,556.833 189.5,577.167 189.5,597.5C 187.901,597.232 186.568,597.566 185.5,598.5C 185.333,752.834 185.5,907.167 186,1061.5C 187.071,1069.93 188.571,1078.26 190.5,1086.5C 189.502,1111.33 189.169,1136.33 189.5,1161.5C 184.5,1161.5 179.5,1161.5 174.5,1161.5C 174.5,774.167 174.5,386.833 174.5,-0.5 Z"/></g>
<g><path style="opacity:1" fill="#a6864f" d="M 189.5,-0.5 C 200.5,-0.5 211.5,-0.5 222.5,-0.5C 222.5,19.8333 222.5,40.1667 222.5,60.5C 223.791,60.2627 224.791,60.596 225.5,61.5C 212.167,61.5 198.833,61.5 185.5,61.5C 186.568,60.5655 187.901,60.2322 189.5,60.5C 189.5,40.1667 189.5,19.8333 189.5,-0.5 Z"/></g>
<g><path style="opacity:1" fill="#a78851" d="M 222.5,-0.5 C 225.5,-0.5 228.5,-0.5 231.5,-0.5C 231.5,19.8333 231.5,40.1667 231.5,60.5C 233.099,60.2322 234.432,60.5655 235.5,61.5C 232.167,61.5 228.833,61.5 225.5,61.5C 224.791,60.596 223.791,60.2627 222.5,60.5C 222.5,40.1667 222.5,19.8333 222.5,-0.5 Z"/></g>
<g><path style="opacity:0.999" fill="#ab8c55" d="M 231.5,-0.5 C 246.167,-0.5 260.833,-0.5 275.5,-0.5C 274.861,21.398 275.528,43.0646 277.5,64.5C 263.543,63.0026 249.543,62.0026 235.5,61.5C 234.432,60.5655 233.099,60.2322 231.5,60.5C 231.5,40.1667 231.5,19.8333 231.5,-0.5 Z"/></g>
<g><path style="opacity:1" fill="#af9259" d="M 275.5,-0.5 C 285.833,-0.5 296.167,-0.5 306.5,-0.5C 308.607,0.468218 310.941,0.801552 313.5,0.5C 314.167,23.5 314.833,46.5 315.5,69.5C 302.885,67.4597 290.218,65.7931 277.5,64.5C 275.528,43.0646 274.861,21.398 275.5,-0.5 Z"/></g>
<g><path style="opacity:0.995" fill="#e9dd98" d="M 800.5,-0.5 C 819.5,-0.5 838.5,-0.5 857.5,-0.5C 857.831,21.673 857.497,43.673 856.5,65.5C 851.311,48.5012 841.978,34.3346 828.5,23C 819.848,18.0235 810.514,15.8569 800.5,16.5C 800.5,10.8333 800.5,5.16667 800.5,-0.5 Z"/></g>
<g><path style="opacity:0.966" fill="#ece19b" d="M 857.5,-0.5 C 862.5,-0.5 867.5,-0.5 872.5,-0.5C 871.834,387.168 872.501,774.501 874.5,1161.5C 885.833,1161.5 897.167,1161.5 908.5,1161.5C 915.5,1161.5 922.5,1161.5 929.5,1161.5C 936.833,1161.5 944.167,1161.5 951.5,1161.5C 965.5,1161.5 979.5,1161.5 993.5,1161.5C 929.335,1162.5 865.002,1162.83 800.5,1162.5C 800.5,1156.17 800.5,1149.83 800.5,1143.5C 804.833,1143.5 809.167,1143.5 813.5,1143.5C 809.702,1144.48 805.702,1144.82 801.5,1144.5C 801.5,1150.17 801.5,1155.83 801.5,1161.5C 805.833,1161.5 810.167,1161.5 814.5,1161.5C 828.833,1161.5 843.167,1161.5 857.5,1161.5C 857.831,1138.99 857.497,1116.66 856.5,1094.5C 860.398,1081.45 862.898,1068.11 864,1054.5C 864.667,736.833 864.667,419.167 864,101.5C 862.968,89.173 860.468,77.173 856.5,65.5C 857.497,43.673 857.831,21.673 857.5,-0.5 Z"/></g>
<g><path style="opacity:1" fill="#ece39c" d="M 872.5,-0.5 C 873.167,-0.5 873.833,-0.5 874.5,-0.5C 874.5,386.833 874.5,774.167 874.5,1161.5C 872.501,774.501 871.834,387.168 872.5,-0.5 Z"/></g>
<g><path style="opacity:1" fill="#efe59e" d="M 874.5,-0.5 C 885.833,-0.5 897.167,-0.5 908.5,-0.5C 908.5,386.833 908.5,774.167 908.5,1161.5C 897.167,1161.5 885.833,1161.5 874.5,1161.5C 874.5,774.167 874.5,386.833 874.5,-0.5 Z"/></g>
<g><path style="opacity:1" fill="#f2e8a1" d="M 908.5,-0.5 C 915.5,-0.5 922.5,-0.5 929.5,-0.5C 929.181,61.5227 929.515,123.523 930.5,185.5C 929.379,183.259 928.213,180.925 927,178.5C 926.333,469.5 926.333,760.5 927,1051.5C 927.615,1062.31 929.115,1072.97 931.5,1083.5C 930.732,1082.74 930.232,1081.74 930,1080.5C 929.5,1107.5 929.333,1134.5 929.5,1161.5C 922.5,1161.5 915.5,1161.5 908.5,1161.5C 908.5,774.167 908.5,386.833 908.5,-0.5 Z"/></g>
<g><path style="opacity:1" fill="#f4eba3" d="M 929.5,-0.5 C 936.833,-0.5 944.167,-0.5 951.5,-0.5C 951.5,77.5 951.5,155.5 951.5,233.5C 943.989,217.802 936.989,201.802 930.5,185.5C 929.515,123.523 929.181,61.5227 929.5,-0.5 Z"/></g>
<g><path style="opacity:1" fill="#f7efa6" d="M 951.5,-0.5 C 959.833,-0.5 968.167,-0.5 976.5,-0.5C 976.174,97.8618 976.507,196.195 977.5,294.5C 968.07,274.559 959.403,254.225 951.5,233.5C 951.5,155.5 951.5,77.5 951.5,-0.5 Z"/></g>
<g><path style="opacity:1" fill="#f8f1a8" d="M 976.5,-0.5 C 978.5,-0.5 980.5,-0.5 982.5,-0.5C 984.3,4.89903 986.3,10.2324 988.5,15.5C 987.883,15.3893 987.383,15.056 987,14.5C 986.833,114.334 986.333,214.001 985.5,313.5C 982.462,307.406 979.796,301.073 977.5,294.5C 976.507,196.195 976.174,97.8618 976.5,-0.5 Z"/></g>
<g><path style="opacity:0.998" fill="#a6854f" d="M 1797.5,-0.5 C 1798.17,-0.5 1798.83,-0.5 1799.5,-0.5C 1798.84,49.5112 1799.5,99.1779 1801.5,148.5C 1789.68,175.988 1777.68,203.322 1765.5,230.5C 1765.67,180.166 1765.5,129.832 1765,79.5C 1764.72,80.4158 1764.22,81.0825 1763.5,81.5C 1774.64,54.0928 1785.97,26.7594 1797.5,-0.5 Z"/></g>
<g><path style="opacity:1" fill="#a3824c" d="M 1799.5,-0.5 C 1804.5,-0.5 1809.5,-0.5 1814.5,-0.5C 1814.5,386.833 1814.5,774.167 1814.5,1161.5C 1809.5,1161.5 1804.5,1161.5 1799.5,1161.5C 1799.83,1142.99 1799.5,1124.66 1798.5,1106.5C 1806.98,1088.43 1811.65,1069.43 1812.5,1049.5C 1813.67,740 1813.83,430.334 1813,120.5C 1811.96,121.244 1811.46,122.244 1811.5,123.5C 1808.44,131.946 1805.11,140.279 1801.5,148.5C 1799.5,99.1779 1798.84,49.5112 1799.5,-0.5 Z"/></g>
<g><path style="opacity:1" fill="#a1804b" d="M 1814.5,-0.5 C 1818.83,-0.5 1823.17,-0.5 1827.5,-0.5C 1827.5,386.833 1827.5,774.167 1827.5,1161.5C 1823.17,1161.5 1818.83,1161.5 1814.5,1161.5C 1814.5,774.167 1814.5,386.833 1814.5,-0.5 Z"/></g>
<g><path style="opacity:0.992" fill="#9f7e49" d="M 1827.5,-0.5 C 1834.83,-0.5 1842.17,-0.5 1849.5,-0.5C 1849.5,386.833 1849.5,774.167 1849.5,1161.5C 1856.5,1161.5 1863.5,1161.5 1870.5,1161.5C 1912.83,1161.5 1955.17,1161.5 1997.5,1161.5C 1914.34,1162.5 1831,1162.83 1747.5,1162.5C 1753.31,1161.51 1759.31,1161.18 1765.5,1161.5C 1776.83,1161.5 1788.17,1161.5 1799.5,1161.5C 1804.5,1161.5 1809.5,1161.5 1814.5,1161.5C 1818.83,1161.5 1823.17,1161.5 1827.5,1161.5C 1827.5,774.167 1827.5,386.833 1827.5,-0.5 Z"/></g>
<g><path style="opacity:1" fill="#9d7b46" d="M 1849.5,-0.5 C 1856.5,-0.5 1863.5,-0.5 1870.5,-0.5C 1870.5,386.833 1870.5,774.167 1870.5,1161.5C 1863.5,1161.5 1856.5,1161.5 1849.5,1161.5C 1849.5,774.167 1849.5,386.833 1849.5,-0.5 Z"/></g>
<g><path style="opacity:1" fill="#9c7945" d="M 1870.5,-0.5 C 1912.83,-0.5 1955.17,-0.5 1997.5,-0.5C 1997.5,5.16667 1997.5,10.8333 1997.5,16.5C 1986.63,15.7684 1976.63,18.2684 1967.5,24C 1946.77,43.3018 1934.93,67.1351 1932,95.5C 1931.33,417.5 1931.33,739.5 1932,1061.5C 1934.6,1090.85 1946.43,1115.69 1967.5,1136C 1976.4,1142.56 1986.4,1145.06 1997.5,1143.5C 1997.5,1149.5 1997.5,1155.5 1997.5,1161.5C 1955.17,1161.5 1912.83,1161.5 1870.5,1161.5C 1870.5,774.167 1870.5,386.833 1870.5,-0.5 Z"/></g>
<g><path style="opacity:1" fill="#b2965d" d="M 313.5,0.5 C 317.857,0.586454 322.19,0.919787 326.5,1.5C 325.511,24.425 325.178,47.425 325.5,70.5C 324.209,70.2627 323.209,70.596 322.5,71.5C 320.167,70.8333 317.833,70.1667 315.5,69.5C 314.833,46.5 314.167,23.5 313.5,0.5 Z"/></g>
<g><path style="opacity:0.997" fill="#b4985f" d="M 326.5,1.5 C 335.042,1.91813 343.376,2.91813 351.5,4.5C 352.49,29.0921 352.823,53.7587 352.5,78.5C 342.652,75.5381 332.652,73.2048 322.5,71.5C 323.209,70.596 324.209,70.2627 325.5,70.5C 325.178,47.425 325.511,24.425 326.5,1.5 Z"/></g>
<g><path style="opacity:0.998" fill="#b79c62" d="M 351.5,4.5 C 362.227,5.36572 372.893,6.69906 383.5,8.5C 382.432,9.43448 381.099,9.76781 379.5,9.5C 379.333,35.1688 379.5,60.8355 380,86.5C 380.717,87.0442 381.217,87.7109 381.5,88.5C 371.817,85.1616 362.151,81.8282 352.5,78.5C 352.823,53.7587 352.49,29.0921 351.5,4.5 Z"/></g>
<g><path style="opacity:0.998" fill="#baa065" d="M 383.5,8.5 C 393.219,10.2439 402.886,12.2439 412.5,14.5C 412.183,44.2106 412.516,73.8773 413.5,103.5C 403.074,97.9535 392.408,92.9535 381.5,88.5C 381.217,87.7109 380.717,87.0442 380,86.5C 379.5,60.8355 379.333,35.1688 379.5,9.5C 381.099,9.76781 382.432,9.43448 383.5,8.5 Z"/></g>
<g><path style="opacity:1" fill="#f9f2a9" d="M 988.5,15.5 C 991.107,21.0482 993.44,26.7148 995.5,32.5C 996.164,133.172 995.498,233.506 993.5,333.5C 990.833,326.833 988.167,320.167 985.5,313.5C 986.333,214.001 986.833,114.334 987,14.5C 987.383,15.056 987.883,15.3893 988.5,15.5 Z"/></g>
<g><path style="opacity:0.998" fill="#bda568" d="M 412.5,14.5 C 423.818,16.7437 434.818,19.7437 445.5,23.5C 445.5,56.8333 445.5,90.1667 445.5,123.5C 435.17,116.333 424.503,109.666 413.5,103.5C 412.516,73.8773 412.183,44.2106 412.5,14.5 Z"/></g>
<g><path style="opacity:0.998" fill="#c0a86c" d="M 445.5,23.5 C 451.784,24.928 457.784,26.928 463.5,29.5C 463.333,65.5015 463.5,101.502 464,137.5C 465.039,138.244 465.539,139.244 465.5,140.5C 458.808,134.804 452.142,129.137 445.5,123.5C 445.5,90.1667 445.5,56.8333 445.5,23.5 Z"/></g>
<g><path style="opacity:0.999" fill="#c2ab6e" d="M 463.5,29.5 C 474.712,32.6771 485.379,37.0104 495.5,42.5C 494.178,42.67 493.011,42.3366 492,41.5C 492.163,84.1785 491.329,126.512 489.5,168.5C 481.974,158.794 473.974,149.461 465.5,140.5C 465.539,139.244 465.039,138.244 464,137.5C 463.5,101.502 463.333,65.5015 463.5,29.5 Z"/></g>
<g><path style="opacity:1" fill="#f8f1a8" d="M 995.5,32.5 C 998.736,39.3158 1001.74,46.3158 1004.5,53.5C 1005.16,104.645 1005.49,155.812 1005.5,207C 1005.5,257.171 1004.83,307.004 1003.5,356.5C 1000.44,348.717 997.108,341.05 993.5,333.5C 995.498,233.506 996.164,133.172 995.5,32.5 Z"/></g>
<g><path style="opacity:0.998" fill="#c6af72" d="M 495.5,42.5 C 504.763,45.7983 513.43,50.1317 521.5,55.5C 519.504,112.49 518.837,169.824 519.5,227.5C 512.42,206.34 502.42,186.673 489.5,168.5C 491.329,126.512 492.163,84.1785 492,41.5C 493.011,42.3366 494.178,42.67 495.5,42.5 Z"/></g>
<g><path style="opacity:1" fill="#c8b375" d="M 521.5,55.5 C 529.716,59.7669 537.382,64.7669 544.5,70.5C 543.5,213.666 543.167,356.999 543.5,500.5C 537.078,506.55 530.078,511.883 522.5,516.5C 521.5,516.5 520.5,516.5 519.5,516.5C 519.667,470.832 519.5,425.165 519,379.5C 518.617,380.056 518.117,380.389 517.5,380.5C 532.141,341.477 535.307,301.477 527,260.5C 524.652,249.444 522.152,238.444 519.5,227.5C 518.837,169.824 519.504,112.49 521.5,55.5 Z"/></g>
<g><path style="opacity:0.999" fill="#f6efa6" d="M 1004.5,53.5 C 1013.68,73.8795 1022.35,94.5462 1030.5,115.5C 1030.67,215.167 1030.5,314.834 1030,414.5C 1029.58,413.244 1028.75,412.577 1027.5,412.5C 1019.5,393.833 1011.5,375.167 1003.5,356.5C 1004.83,307.004 1005.5,257.171 1005.5,207C 1005.49,155.812 1005.16,104.645 1004.5,53.5 Z"/></g>
<g><path style="opacity:1" fill="#c9b476" d="M 544.5,70.5 C 546.027,70.427 547.027,71.0937 547.5,72.5C 547.168,213.903 547.502,355.237 548.5,496.5C 546.858,497.803 545.191,499.136 543.5,500.5C 543.167,356.999 543.5,213.666 544.5,70.5 Z"/></g>
<g><path style="opacity:1" fill="#ccb778" d="M 547.5,72.5 C 562.068,82.4003 575.068,94.067 586.5,107.5C 585.168,224.264 585.168,340.931 586.5,457.5C 575.224,471.777 562.557,484.777 548.5,496.5C 547.502,355.237 547.168,213.903 547.5,72.5 Z"/></g>
<g><path style="opacity:1" fill="#a88952" d="M 1765.5,230.5 C 1763.56,236.65 1761.23,242.65 1758.5,248.5C 1757.83,198.167 1757.17,147.833 1756.5,97.5C 1758.32,91.8641 1760.66,86.5307 1763.5,81.5C 1764.22,81.0825 1764.72,80.4158 1765,79.5C 1765.5,129.832 1765.67,180.166 1765.5,230.5 Z"/></g>
<g><path style="opacity:0.996" fill="#ab8c55" d="M 1756.5,97.5 C 1757.17,147.833 1757.83,198.167 1758.5,248.5C 1743.56,282.713 1728.89,317.046 1714.5,351.5C 1712.83,302.008 1711.83,252.342 1711.5,202.5C 1726.26,167.32 1741.26,132.32 1756.5,97.5 Z"/></g>
<g><path style="opacity:1" fill="#cebb7b" d="M 586.5,107.5 C 589.959,110.415 592.959,113.748 595.5,117.5C 594.168,227.069 594.168,336.736 595.5,446.5C 592.848,450.482 589.848,454.149 586.5,457.5C 585.168,340.931 585.168,224.264 586.5,107.5 Z"/></g>
<g><path style="opacity:0.997" fill="#d1be7e" d="M 595.5,117.5 C 614.108,140.376 627.775,166.042 636.5,194.5C 635.169,253.931 635.169,313.264 636.5,372.5C 626.945,399.624 613.279,424.291 595.5,446.5C 594.168,336.736 594.168,227.069 595.5,117.5 Z"/></g>
<g><path style="opacity:1" fill="#f4eba3" d="M 1030.5,115.5 C 1038.4,132.524 1045.74,149.857 1052.5,167.5C 1052.83,267.668 1052.5,367.668 1051.5,467.5C 1043.22,449.284 1035.22,430.95 1027.5,412.5C 1028.75,412.577 1029.58,413.244 1030,414.5C 1030.5,314.834 1030.67,215.167 1030.5,115.5 Z"/></g>
<g><path style="opacity:0.898" fill="#a2824b" d="M 1812.5,1049.5 C 1812.83,740.666 1812.5,432 1811.5,123.5C 1811.46,122.244 1811.96,121.244 1813,120.5C 1813.83,430.334 1813.67,740 1812.5,1049.5 Z"/></g>
<g><path style="opacity:1" fill="#f2e8a1" d="M 1052.5,167.5 C 1060.68,185.211 1068.35,203.211 1075.5,221.5C 1074.83,320.5 1074.17,419.5 1073.5,518.5C 1065.93,501.685 1058.6,484.685 1051.5,467.5C 1052.5,367.668 1052.83,267.668 1052.5,167.5 Z"/></g>
<g><path style="opacity:0.998" fill="#ae9058" d="M 1711.5,202.5 C 1711.83,252.342 1712.83,302.008 1714.5,351.5C 1711.23,358.38 1708.23,365.38 1705.5,372.5C 1704.83,322.5 1704.17,272.5 1703.5,222.5C 1705.97,215.749 1708.64,209.082 1711.5,202.5 Z"/></g>
<g><path style="opacity:0.988" fill="#d4c281" d="M 636.5,194.5 C 652.287,245.796 654.453,297.796 643,350.5C 641.125,357.956 638.958,365.289 636.5,372.5C 635.169,313.264 635.169,253.931 636.5,194.5 Z"/></g>
<g><path style="opacity:0.998" fill="#efe59e" d="M 1075.5,221.5 C 1087.35,247.867 1098.68,274.534 1109.5,301.5C 1109.17,400.004 1108.17,498.338 1106.5,596.5C 1095.5,570.505 1084.5,544.505 1073.5,518.5C 1074.17,419.5 1074.83,320.5 1075.5,221.5 Z"/></g>
<g><path style="opacity:1" fill="#b0925a" d="M 1703.5,222.5 C 1704.17,272.5 1704.83,322.5 1705.5,372.5C 1695.31,395.746 1685.31,419.08 1675.5,442.5C 1673.83,393.773 1672.83,344.773 1672.5,295.5C 1682.27,270.845 1692.6,246.512 1703.5,222.5 Z"/></g>
<g><path style="opacity:0.999" fill="#b2965d" d="M 1672.5,295.5 C 1672.83,344.773 1673.83,393.773 1675.5,442.5C 1671.31,451.746 1667.31,461.08 1663.5,470.5C 1662.17,446.176 1661.5,421.509 1661.5,396.5C 1661.84,371.195 1661.84,346.195 1661.5,321.5C 1664.65,312.534 1668.32,303.868 1672.5,295.5 Z"/></g>
<g><path style="opacity:0.998" fill="#ece19b" d="M 1109.5,301.5 C 1115.41,314.319 1121.07,327.319 1126.5,340.5C 1126.17,439.338 1125.17,538.004 1123.5,636.5C 1117.83,623.162 1112.17,609.828 1106.5,596.5C 1108.17,498.338 1109.17,400.004 1109.5,301.5 Z"/></g>
<g><path style="opacity:0.997" fill="#b4985f" d="M 1661.5,321.5 C 1661.84,346.195 1661.84,371.195 1661.5,396.5C 1661.5,421.509 1662.17,446.176 1663.5,470.5C 1653.89,492.05 1644.56,513.717 1635.5,535.5C 1634.5,485.669 1634.17,435.669 1634.5,385.5C 1642.98,363.879 1651.98,342.546 1661.5,321.5 Z"/></g>
<g><path style="opacity:0.998" fill="#e9dd98" d="M 1126.5,340.5 C 1141.16,375.162 1155.83,409.829 1170.5,444.5C 1169.88,444.389 1169.38,444.056 1169,443.5C 1168.83,542.001 1168.33,640.334 1167.5,738.5C 1152.83,704.5 1138.17,670.5 1123.5,636.5C 1125.17,538.004 1126.17,439.338 1126.5,340.5 Z"/></g>
<g><path style="opacity:0.998" fill="#c6af72" d="M 522.5,516.5 C 512.676,523.583 502.342,529.916 491.5,535.5C 491.5,499.5 491.5,463.5 491.5,427.5C 501.957,412.928 510.624,397.261 517.5,380.5C 518.117,380.389 518.617,380.056 519,379.5C 519.5,425.165 519.667,470.832 519.5,516.5C 520.5,516.5 521.5,516.5 522.5,516.5 Z"/></g>
<g><path style="opacity:0.996" fill="#b69c61" d="M 1634.5,385.5 C 1634.17,435.669 1634.5,485.669 1635.5,535.5C 1626.56,555.713 1617.89,576.046 1609.5,596.5C 1607.67,548.844 1606.84,500.844 1607,452.5C 1606.62,453.942 1605.79,454.942 1604.5,455.5C 1613.99,431.866 1623.99,408.533 1634.5,385.5 Z"/></g>
<g><path style="opacity:0.997" fill="#c2ab6e" d="M 491.5,427.5 C 491.5,463.5 491.5,499.5 491.5,535.5C 482.948,540.943 473.948,545.61 464.5,549.5C 463.179,518.961 463.179,488.294 464.5,457.5C 474.269,448.071 483.269,438.071 491.5,427.5 Z"/></g>
<g><path style="opacity:1" fill="#e4d793" d="M 1170.5,444.5 C 1184.77,477.38 1198.77,510.38 1212.5,543.5C 1212.83,642.089 1212.49,740.756 1211.5,839.5C 1196.59,806.014 1181.93,772.347 1167.5,738.5C 1168.33,640.334 1168.83,542.001 1169,443.5C 1169.38,444.056 1169.88,444.389 1170.5,444.5 Z"/></g>
<g><path style="opacity:0.999" fill="#baa065" d="M 1609.5,596.5 C 1597.82,623.239 1586.15,649.905 1574.5,676.5C 1574.83,627.33 1574.5,578.33 1573.5,529.5C 1583.28,504.61 1593.61,479.943 1604.5,455.5C 1605.79,454.942 1606.62,453.942 1607,452.5C 1606.84,500.844 1607.67,548.844 1609.5,596.5 Z"/></g>
<g><path style="opacity:0.999" fill="#c0a86c" d="M 464.5,457.5 C 463.179,488.294 463.179,518.961 464.5,549.5C 459.265,552.949 453.598,555.616 447.5,557.5C 446.167,530.167 444.833,502.833 443.5,475.5C 450.475,469.529 457.475,463.529 464.5,457.5 Z"/></g>
<g><path style="opacity:0.998" fill="#bda568" d="M 443.5,475.5 C 444.833,502.833 446.167,530.167 447.5,557.5C 437.557,562.297 427.223,566.297 416.5,569.5C 415.167,569.5 413.833,569.5 412.5,569.5C 412.5,544.833 412.5,520.167 412.5,495.5C 422.811,488.867 433.144,482.2 443.5,475.5 Z"/></g>
<g><path style="opacity:0.998" fill="#baa065" d="M 412.5,495.5 C 412.5,520.167 412.5,544.833 412.5,569.5C 413.833,569.5 415.167,569.5 416.5,569.5C 404.488,574.258 392.155,578.258 379.5,581.5C 379.5,557.833 379.5,534.167 379.5,510.5C 390.579,505.695 401.579,500.695 412.5,495.5 Z"/></g>
<g><path style="opacity:0.998" fill="#b69c61" d="M 379.5,510.5 C 379.5,534.167 379.5,557.833 379.5,581.5C 370.231,583.817 360.897,585.817 351.5,587.5C 352.489,565.242 352.822,542.908 352.5,520.5C 361.425,517.189 370.425,513.856 379.5,510.5 Z"/></g>
<g><path style="opacity:0.997" fill="#b3985e" d="M 352.5,520.5 C 352.822,542.908 352.489,565.242 351.5,587.5C 339.381,590.356 327.048,592.689 314.5,594.5C 314.178,572.758 314.512,551.091 315.5,529.5C 327.76,526.644 340.093,523.644 352.5,520.5 Z"/></g>
<g><path style="opacity:0.997" fill="#bda468" d="M 1573.5,529.5 C 1574.5,578.33 1574.83,627.33 1574.5,676.5C 1564.68,700.801 1554.34,724.801 1543.5,748.5C 1542.78,748.918 1542.28,749.584 1542,750.5C 1541.83,701.998 1541.33,653.665 1540.5,605.5C 1551.13,579.93 1562.13,554.596 1573.5,529.5 Z"/></g>
<g><path style="opacity:1" fill="#af9259" d="M 315.5,529.5 C 314.512,551.091 314.178,572.758 314.5,594.5C 300.224,596.283 285.891,597.283 271.5,597.5C 272.568,596.566 273.901,596.232 275.5,596.5C 275.5,575.833 275.5,555.167 275.5,534.5C 288.849,532.998 302.183,531.331 315.5,529.5 Z"/></g>
<g><path style="opacity:0.997" fill="#aa8c54" d="M 275.5,534.5 C 275.5,555.167 275.5,575.833 275.5,596.5C 273.901,596.232 272.568,596.566 271.5,597.5C 266.93,598.441 262.263,598.774 257.5,598.5C 249.016,597.507 240.349,597.174 231.5,597.5C 231.5,577.167 231.5,556.833 231.5,536.5C 236.032,536.818 240.366,536.485 244.5,535.5C 254.845,535.466 265.179,535.133 275.5,534.5 Z"/></g>
<g><path style="opacity:0.959" fill="#a5854f" d="M 185.5,535.5 C 205.167,535.5 224.833,535.5 244.5,535.5C 240.366,536.485 236.032,536.818 231.5,536.5C 228.5,536.5 225.5,536.5 222.5,536.5C 222.5,556.833 222.5,577.167 222.5,597.5C 225.5,597.5 228.5,597.5 231.5,597.5C 240.349,597.174 249.016,597.507 257.5,598.5C 233.5,598.5 209.5,598.5 185.5,598.5C 186.568,597.566 187.901,597.232 189.5,597.5C 189.5,577.167 189.5,556.833 189.5,536.5C 187.233,536.854 185.899,536.521 185.5,535.5 Z"/></g>
<g><path style="opacity:1" fill="#a78951" d="M 231.5,536.5 C 231.5,556.833 231.5,577.167 231.5,597.5C 228.5,597.5 225.5,597.5 222.5,597.5C 222.5,577.167 222.5,556.833 222.5,536.5C 225.5,536.5 228.5,536.5 231.5,536.5 Z"/></g>
<g><path style="opacity:1" fill="#e1d38f" d="M 1212.5,543.5 C 1215.44,549.714 1218.11,556.047 1220.5,562.5C 1219.83,660.5 1219.17,758.5 1218.5,856.5C 1215.6,851.14 1213.26,845.473 1211.5,839.5C 1212.49,740.756 1212.83,642.089 1212.5,543.5 Z"/></g>
<g><path style="opacity:1" fill="#e1d28e" d="M 1220.5,562.5 C 1224.45,571.393 1228.11,580.393 1231.5,589.5C 1230.83,687.167 1230.17,784.833 1229.5,882.5C 1225.44,874.002 1221.78,865.335 1218.5,856.5C 1219.17,758.5 1219.83,660.5 1220.5,562.5 Z"/></g>
<g><path style="opacity:1" fill="#dfd08d" d="M 1231.5,589.5 C 1241.4,611.19 1250.74,633.19 1259.5,655.5C 1259.17,752.671 1258.17,849.671 1256.5,946.5C 1247.5,925.167 1238.5,903.833 1229.5,882.5C 1230.17,784.833 1230.83,687.167 1231.5,589.5 Z"/></g>
<g><path style="opacity:0.997" fill="#c0a86c" d="M 1540.5,605.5 C 1541.33,653.665 1541.83,701.998 1542,750.5C 1542.28,749.584 1542.78,748.918 1543.5,748.5C 1537.29,765.239 1530.29,781.572 1522.5,797.5C 1523.16,748.822 1522.5,700.488 1520.5,652.5C 1527.44,636.949 1534.11,621.282 1540.5,605.5 Z"/></g>
<g><path style="opacity:0.998" fill="#c2ab6e" d="M 1520.5,652.5 C 1522.5,700.488 1523.16,748.822 1522.5,797.5C 1513.78,819.271 1504.78,840.937 1495.5,862.5C 1495.17,814.325 1494.17,766.325 1492.5,718.5C 1502.03,696.587 1511.36,674.587 1520.5,652.5 Z"/></g>
<g><path style="opacity:0.999" fill="#dccc8a" d="M 1259.5,655.5 C 1266.34,669.866 1272.68,684.532 1278.5,699.5C 1277.83,796.833 1277.17,894.167 1276.5,991.5C 1269.59,976.682 1262.93,961.682 1256.5,946.5C 1258.17,849.671 1259.17,752.671 1259.5,655.5 Z"/></g>
<g><path style="opacity:0.998" fill="#daca88" d="M 1278.5,699.5 C 1282.35,707.203 1285.68,715.203 1288.5,723.5C 1287.83,820.402 1287.16,917.402 1286.5,1014.5C 1282.41,1007.24 1279.07,999.574 1276.5,991.5C 1277.17,894.167 1277.83,796.833 1278.5,699.5 Z"/></g>
<g><path style="opacity:1" fill="#d9c886" d="M 1288.5,723.5 C 1295.01,737.2 1301.01,751.2 1306.5,765.5C 1306.83,863.335 1306.5,961.001 1305.5,1058.5C 1298.65,1044.12 1292.32,1029.46 1286.5,1014.5C 1287.16,917.402 1287.83,820.402 1288.5,723.5 Z"/></g>
<g><path style="opacity:0.998" fill="#c6af72" d="M 1492.5,718.5 C 1494.17,766.325 1495.17,814.325 1495.5,862.5C 1486.13,883.897 1476.8,905.23 1467.5,926.5C 1466.67,879.237 1466.17,831.904 1466,784.5C 1465.72,785.416 1465.22,786.082 1464.5,786.5C 1473.63,763.765 1482.97,741.098 1492.5,718.5 Z"/></g>
<g><path style="opacity:1" fill="#d7c684" d="M 1306.5,765.5 C 1314.35,782.535 1321.68,799.868 1328.5,817.5C 1328.67,914.834 1328.5,1012.17 1328,1109.5C 1327.72,1108.58 1327.22,1107.92 1326.5,1107.5C 1318.71,1091.57 1311.71,1075.24 1305.5,1058.5C 1306.5,961.001 1306.83,863.335 1306.5,765.5 Z"/></g>
<g><path style="opacity:0.999" fill="#c8b375" d="M 1467.5,926.5 C 1458.4,949.157 1448.73,971.491 1438.5,993.5C 1437.83,946.5 1437.17,899.5 1436.5,852.5C 1445.26,830.19 1454.6,808.19 1464.5,786.5C 1465.22,786.082 1465.72,785.416 1466,784.5C 1466.17,831.904 1466.67,879.237 1467.5,926.5 Z"/></g>
<g><path style="opacity:0.999" fill="#d5c382" d="M 1328.5,817.5 C 1334.07,829.653 1339.41,841.986 1344.5,854.5C 1343.83,951.5 1343.17,1048.5 1342.5,1145.5C 1336.65,1133.12 1331.32,1120.45 1326.5,1107.5C 1327.22,1107.92 1327.72,1108.58 1328,1109.5C 1328.5,1012.17 1328.67,914.834 1328.5,817.5 Z"/></g>
<g><path style="opacity:0.998" fill="#ccb778" d="M 1436.5,852.5 C 1437.17,899.5 1437.83,946.5 1438.5,993.5C 1426.6,1023.56 1413.93,1053.23 1400.5,1082.5C 1400.67,1035.17 1400.5,987.832 1400,940.5C 1399.58,941.756 1398.75,942.423 1397.5,942.5C 1410.13,912.263 1423.13,882.263 1436.5,852.5 Z"/></g>
<g><path style="opacity:1" fill="#d3c181" d="M 1344.5,854.5 C 1346.77,859.383 1348.77,864.383 1350.5,869.5C 1349.83,966.167 1349.17,1062.83 1348.5,1159.5C 1345.99,1155.13 1343.99,1150.47 1342.5,1145.5C 1343.17,1048.5 1343.83,951.5 1344.5,854.5 Z"/></g>
<g><path style="opacity:0.997" fill="#d1be7e" d="M 1350.5,869.5 C 1363.58,899.981 1376.91,930.314 1390.5,960.5C 1390.59,961.496 1390.25,962.329 1389.5,963C 1390.16,1010.26 1390.83,1057.43 1391.5,1104.5C 1380.64,1129.75 1369.97,1155.08 1359.5,1180.5C 1358.5,1180.5 1357.5,1180.5 1356.5,1180.5C 1354.12,1173.4 1351.45,1166.4 1348.5,1159.5C 1349.17,1062.83 1349.83,966.167 1350.5,869.5 Z"/></g>
<g><path style="opacity:1" fill="#cebb7b" d="M 1400.5,1082.5 C 1397.89,1090 1394.89,1097.33 1391.5,1104.5C 1390.83,1057.43 1390.16,1010.26 1389.5,963C 1390.25,962.329 1390.59,961.496 1390.5,960.5C 1392.83,954.5 1395.17,948.5 1397.5,942.5C 1398.75,942.423 1399.58,941.756 1400,940.5C 1400.5,987.832 1400.67,1035.17 1400.5,1082.5 Z"/></g>
<g><path style="opacity:0.999" fill="#f4eba3" d="M 931.5,1083.5 C 935.615,1098.73 942.615,1112.4 952.5,1124.5C 951.505,1136.66 951.171,1148.99 951.5,1161.5C 944.167,1161.5 936.833,1161.5 929.5,1161.5C 929.333,1134.5 929.5,1107.5 930,1080.5C 930.232,1081.74 930.732,1082.74 931.5,1083.5 Z"/></g>
<g><path style="opacity:0.995" fill="#a5854f" d="M 190.5,1086.5 C 197.461,1106.45 208.461,1123.78 223.5,1138.5C 222.534,1146.08 222.201,1153.75 222.5,1161.5C 211.5,1161.5 200.5,1161.5 189.5,1161.5C 189.169,1136.33 189.502,1111.33 190.5,1086.5 Z"/></g>
<g><path style="opacity:0.995" fill="#e9dd98" d="M 856.5,1094.5 C 857.497,1116.66 857.831,1138.99 857.5,1161.5C 843.167,1161.5 828.833,1161.5 814.5,1161.5C 814.5,1155.5 814.5,1149.5 814.5,1143.5C 824.044,1140.8 831.877,1135.47 838,1127.5C 845.743,1117.34 851.91,1106.34 856.5,1094.5 Z"/></g>
<g><path style="opacity:0.997" fill="#a5854f" d="M 1798.5,1106.5 C 1799.5,1124.66 1799.83,1142.99 1799.5,1161.5C 1788.17,1161.5 1776.83,1161.5 1765.5,1161.5C 1766.06,1154.88 1765.39,1148.55 1763.5,1142.5C 1772.18,1139.34 1779.35,1134 1785,1126.5C 1789.77,1119.94 1794.27,1113.27 1798.5,1106.5 Z"/></g>
<g><path style="opacity:0.997" fill="#f7efa6" d="M 952.5,1124.5 C 957.728,1131.23 964.062,1136.73 971.5,1141C 978.661,1143.18 985.995,1144.01 993.5,1143.5C 993.5,1149.5 993.5,1155.5 993.5,1161.5C 979.5,1161.5 965.5,1161.5 951.5,1161.5C 951.171,1148.99 951.505,1136.66 952.5,1124.5 Z"/></g>
<g><path style="opacity:0.964" fill="#a98a53" d="M 223.5,1138.5 C 231.902,1143.01 240.902,1144.68 250.5,1143.5C 250.823,1150.02 250.49,1156.36 249.5,1162.5C 240.682,1161.51 231.682,1161.17 222.5,1161.5C 222.201,1153.75 222.534,1146.08 223.5,1138.5 Z"/></g>
<g><path style="opacity:1" fill="#e6d994" d="M 813.5,1143.5 C 813.833,1143.5 814.167,1143.5 814.5,1143.5C 814.5,1149.5 814.5,1155.5 814.5,1161.5C 810.167,1161.5 805.833,1161.5 801.5,1161.5C 801.5,1155.83 801.5,1150.17 801.5,1144.5C 805.702,1144.82 809.702,1144.48 813.5,1143.5 Z"/></g>
<g><path style="opacity:1" fill="#a98a53" d="M 1763.5,1142.5 C 1765.39,1148.55 1766.06,1154.88 1765.5,1161.5C 1759.31,1161.18 1753.31,1161.51 1747.5,1162.5C 1746.51,1156.36 1746.18,1150.02 1746.5,1143.5C 1752.23,1143.74 1757.89,1143.41 1763.5,1142.5 Z"/></g>
</svg>
